PathFileType	4	(X/Y/Z)	C:/Users/beibeiliu/ov580/test_trc\sequence.37_training_dense_right.trc
DataRate	CameraRate	NumFrames	NumMarkers	Units	OrigDataRate	OrigDataStartFrame	OrigNumFrames
120	120	21	19	mm	120	26	152
Frame#	Time	ThumbCMC			ThumbMCP			ThumbIP			ThumbTip			IndexMCP			IndexPIP			IndexTip			MiddleMCP			MiddlePIP			MiddleTip			RingMCP			RingPIP			RingTip			PinkyMCP			PinkyPIP			PinkyTip			BackHand1			BackHand2			BackHand3	
		X0	Y0	Z0	X1	Y1	Z1	X2	Y2	Z2	X3	Y3	Z3	X4	Y4	Z4	X5	Y5	Z5	X6	Y6	Z6	X7	Y7	Z7	X8	Y8	Z8	X9	Y9	Z9	X10	Y10	Z10	X11	Y11	Z11	X12	Y12	Z12	X13	Y13	Z13	X14	Y14	Z14	X15	Y15	Z15	X16	Y16	Z16	X17	Y17	Z17	X18	Y18	Z18	
25	0.208333	112.796	9.54982	73.129	101.537	21.7648	48.937	90.1794	24.8706	32.7095	69.3747	25.7573	18.1012	85.7013	-34.1182	39.2902	73.9641	-40.7897	15.8015	60.651	-33.8529	-5.6653	59.609	-42.4201	49.0223	42.9377	-45.0472	27.8644	32.9789	-18.3887	5.89451	45.437	-32.9239	60.185	32.1563	-25.5881	35.0459	35.0411	-4.13005	26.9168	35.404	-22.6632	78.2403	21.8359	-18.9978	58.8658	28.2399	3.2877	45.3468	71.3163	-19.6759	99.2049	84.2068	-12.2603	117.76	100.047	-17.4295	93.6406	
26	0.216667	107.485	7.81062	75.6042	98.7994	18.4134	50.4611	90.1228	22.434	29.1849	70.5886	23.7906	12.7117	84.4189	-36.2754	40.0796	70.6733	-43.3882	17.5347	62.3312	-27.4761	-6.09515	61.0985	-41.8102	48.9521	41.2659	-38.7114	22.8342	36.9984	-10.764	14.4674	46.0981	-37.2287	56.7323	34.761	-27.3785	33.4562	36.1227	0.186023	30.2992	32.6325	-25.8148	78.8765	23.0721	-26.2662	56.4343	25.1715	-7.65459	42.5242	69.2904	-20.7572	94.5868	78.6736	-11.3709	116.601	98.1048	-18.8007	95.1962	
27	0.225	110.434	7.61026	76.0097	101.388	17.8171	48.1714	88.3942	17.3045	23.4796	74.0833	21.3484	8.99451	79.8434	-41.2636	40.1157	69.9048	-44.4028	16.0501	61.8738	-21.0061	-2.56521	58.6495	-43.2221	45.8135	41.4551	-36.2296	21.1838	48.8726	-3.3346	18.3426	44.2008	-36.2387	61.0854	35.5636	-30.6617	33.7266	37.3963	-1.76343	31.812	33.8265	-26.8216	78.8292	17.2207	-29.4045	60.7995	24.5152	-12.8107	38.154	65.9159	-22.6639	94.113	81.2399	-11.2607	117.462	94.4069	-21.1673	91.7966	
28	0.233333	106.514	5.9394	74.5634	99.1222	13.5715	45.1387	91.6957	15.0103	26.4208	79.5369	16.9216	5.888	81.1621	-44.6412	38.1754	70.0806	-43.1578	15.0216	65.5224	-11.8844	5.20953	58.4291	-44.1316	43.0366	47.1717	-34.5082	18.7478	53.9377	-1.27127	23.3187	43.6298	-39.468	56.2976	33.9337	-31.3764	33.0178	41.1797	-5.20227	30.8044	33.374	-28.2035	76.2915	20.0227	-32.5925	56.0158	21.0218	-16.2268	38.2316	66.7983	-21.9119	95.2857	76.073	-9.18043	117.288	94.7948	-20.8969	90.9695	
29	0.241667	106.174	5.89156	78.941	101.076	13.7167	49.8967	98.123	13.0615	24.2502	85.7133	10.9008	4.86523	78.2857	-44.5069	38.7192	69.913	-40.1804	16.213	68.2539	-11.2061	11.4806	57.9036	-45.0247	42.2298	48.3258	-29.54	19.7075	61.6587	-0.375481	27.5352	44.3444	-38.7273	57.0592	38.0193	-28.9947	30.8084	48.1949	-3.01251	32.747	34.2852	-28.9612	75.0406	21.0376	-31.143	52.1645	25.8219	-13.3296	37.4819	64.7463	-23.6945	95.0887	73.0572	-10.1687	118.379	95.9722	-18.1022	95.1238	
30	0.25	108.476	3.62156	78.3526	105.207	10.2811	50.3942	103.309	10.6049	29.6419	98.1718	9.67102	9.95849	86.2032	-44.089	39.7821	71.4561	-37.067	17.2282	71.4273	-10.0265	13.5594	61.5691	-45.0038	43.2066	52.1018	-30.3174	18.7949	60.885	-1.47565	28.2267	45.6634	-39.8751	53.358	42.961	-27.023	29.357	50.5394	1.54261	36.8625	35.7919	-30.0713	69.0705	29.6594	-26.6789	46.0986	38.878	-7.17212	37.8264	64.8315	-23.9805	96.562	73.9312	-11.2359	115.625	95.6499	-19.8314	97.7078	
31	0.258333	109.339	1.54244	81.1021	107.641	4.989	49.7712	109.003	3.83951	30.7001	108.554	2.68583	8.16345	82.7158	-44.3977	43.2078	73.5653	-37.4914	14.9987	71.475	-8.96621	11.9757	60.0625	-46.0541	42.052	51.0678	-32.2205	17.8462	62.2486	0.375022	19.7054	46.2878	-35.7611	48.5988	43.0116	-19.0551	27.8201	55.3016	3.04692	30.3359	33.839	-23.7573	63.7608	34.3671	-14.6651	41.8453	50.965	4.26581	38.9982	65.2959	-24.9109	94.5723	76.1	-12.1473	117.697	91.4613	-21.6132	98.3493	
32	0.266667	113.358	-1.03214	82.9321	112.292	-2.08416	50.936	115.405	-7.29175	30.237	114.15	-10.3924	10.6134	80.3802	-41.7616	39.194	74.1941	-31.9757	8.88905	73.3492	-8.22602	2.74079	59.596	-38.7476	39.9476	53.7094	-25.9961	11.0185	56.0334	5.65025	8.29463	44.3014	-27.2976	45.8553	43.749	-11.9205	23.1994	53.9429	14.7988	23.503	34.7363	-16.1333	59.6132	32.7933	-1.31089	38.9879	54.4242	15.8748	36.4124	60.2254	-23.7359	94.4676	68.8843	-11.5909	114.305	87.8474	-25.1335	94.2151	
33	0.275	111.096	-1.61296	80.4152	114.93	-2.80274	54.1533	115.836	-10.4701	32.667	118.062	-18.9205	12.5601	78.4543	-31.9371	25.7096	71.1609	-21.9678	3.63545	67.7026	2.05178	-7.8307	54.6786	-23.6035	32.7564	51.4879	-10.7691	4.78759	55.0027	16.1234	-5.69458	40.3499	-12.7136	36.6039	39.9352	2.35282	17.1257	47.151	24.5995	11.1854	31.4708	-4.91871	52.7475	29.9622	7.59189	33.6749	45.6219	28.0292	22.8418	58.8859	-19.6504	87.9645	69.4985	-11.4524	107.139	90.3298	-21.0136	89.3321	
34	0.283333	110.427	-2.52178	76.3503	117.528	-9.00277	50.8452	115.388	-14.6363	34.0684	121.585	-24.7896	13.7715	73.4347	-17.7393	20.8389	70.6066	-8.6716	-6.65959	66.5512	8.06646	-20.0732	58.3962	-9.90636	18.9934	52.7799	3.91494	-0.492913	52.8274	31.1134	-16.3586	43.0546	-1.83433	31.7919	38.3197	11.2035	13.4395	44.6163	32.3223	-4.41513	31.9045	4.36064	50.3624	24.7472	13.9333	31.4319	31.2915	26.8946	13.4045	58.4651	-9.31817	81.5151	71.2595	-6.67628	103.049	87.1419	-18.1498	79.2589	
35	0.291667	113.35	-0.263051	77.168	120.246	-12.0412	49.9307	122.942	-19.5122	31.7001	122.711	-25.7788	15.1583	78.9837	-10.2183	10.1176	70.5492	-1.27516	-6.648	68.3615	9.05398	-28.2428	57.7231	-0.627166	12.7307	52.235	11.0195	-6.76382	45.3779	29.4224	-24.9541	41.8531	4.37246	30.3746	37.3284	12.0561	5.39805	30.8202	27.068	-12.9594	32.0503	7.37063	47.6444	23.4188	10.9162	35.0502	14.2227	19.2089	14.4833	63.0852	-8.13055	73.7714	73.2063	-5.48097	99.3002	86.5049	-14.4886	74.736	
36	0.3	112.292	0.42322	72.9969	122.532	-7.32137	53.4426	125.273	-19.5973	29.2615	130.906	-24.862	15.6715	78.4084	-3.62857	9.19793	76.3885	1.73493	-11.6282	68.0326	9.86169	-30.1998	61.4873	0.551481	9.52136	52.157	7.9299	-8.2472	43.9713	16.4074	-34.5038	44.0802	3.6431	28.403	33.295	6.27066	5.14691	24.9613	10.975	-14.536	33.3919	11.0641	51.6966	15.9263	9.40844	35.2989	8.39921	7.33665	23.3536	64.1035	-2.53535	69.5045	72.8778	-5.54085	90.0772	89.6067	-10.4274	72.8214	
37	0.308333	112.767	2.71889	76.8365	126.552	-5.92821	54.4792	131.029	-15.066	29.2553	136.352	-18.5261	13.8246	82.1765	-1.76886	10.8036	76.7219	1.93373	-10.0124	76.3026	6.55972	-34.1169	59.4341	-1.49373	11.6178	49.2113	2.50494	-8.06166	39.2127	6.43513	-32.7897	44.0001	2.80466	29.4861	33.0514	3.31474	6.03754	26.1736	4.45676	-11.5669	31.0061	12.8239	50.5096	16.2314	11.3714	36.9862	4.5176	7.86792	23.3202	62.5311	-3.27487	70.3815	68.0099	-5.84158	90.7582	87.3596	-10.566	67.3308	
38	0.316667	115.821	1.37388	77.761	129.236	0.358832	54.0493	135.089	-2.85694	28.9759	141.165	-0.716784	13.5267	85.3426	-4.03785	9.2397	83.7068	-1.62872	-12.6697	80.3594	6.72988	-34.981	60.1774	-2.70133	15.9883	54.696	-2.00969	-7.63916	45.5604	3.86077	-34.7764	46.8548	4.37365	25.8654	35.94	6.83336	9.34542	30.9881	12.9028	-13.4399	35.9621	16.1982	49.7235	22.3201	18.7838	38.9356	10.6241	18.3375	22.7671	64.6412	-0.785672	69.9449	71.5313	-5.87767	90.0393	87.7755	-12.4167	69.6956	
39	0.325	123.966	8.58947	74.6135	130.708	17.5244	47.1988	133.127	22.334	26.4096	138.717	29.6754	10.6876	94.9324	-1.86416	15.1929	91.8148	-0.996848	-11.3324	89.6942	13.1902	-34.2647	68.9517	-4.95318	13.5659	57.2601	0.257769	-11.8667	51.4809	19.0334	-33.2897	49.4018	4.74756	26.021	43.1787	10.862	3.31581	43.5971	29.5544	-14.9152	41.9076	14.1967	45.1264	25.4095	18.2341	31.2219	16.7389	26.2216	12.834	66.1132	0.667769	68.8573	73.6793	-2.72551	93.2775	94.604	-9.90174	68.6672	
40	0.333333	126.918	17.5921	69.5427	131.108	34.588	48.1117	134.04	43.466	27.1126	131.098	52.42	8.21716	101.993	0.519725	12.9319	95.1496	6.27755	-13.4532	93.3114	31.006	-31.0766	73.2045	-2.51446	15.1886	66.5625	4.13386	-11.2442	64.6863	34.8088	-24.4391	57.686	5.62529	27.8573	52.5213	14.3931	1.27544	54.948	39.0098	-7.23002	45.1132	12.1479	45.7729	31.7477	15.6108	26.2068	28.4186	28.7237	8.4894	74.969	1.28371	65.7429	80.3597	-3.35837	90.3975	99.3227	-3.72239	69.1403	
41	0.341667	129.472	21.4091	67.9117	135.626	41.3004	47.5327	132.522	50.6921	24.3042	128.769	63.6829	4.78918	108.101	1.63978	9.1468	100.825	12.5819	-16.8213	101.358	38.6719	-24.0157	80.1215	-1.67098	8.13619	70.0512	13.8897	-13.5683	75.8308	46.5658	-10.0004	62.7909	4.75701	21.0257	60.8878	16.8883	-0.485929	68.498	47.2823	2.81122	52.0615	12.0197	44.6098	41.8569	15.6065	18.9077	40.0077	31.7941	6.73844	79.4224	0.535634	66.3445	85.3491	0.498997	85.8819	108.615	-2.93582	67.2885	
42	0.35	132.947	22.8733	63.4156	137.045	43.8618	44.1314	136.627	55.3196	20.2387	130.363	67.9093	0.776993	108.379	3.37998	2.93107	103.391	16.6331	-17.3252	103.903	45.1523	-16.3783	83.097	0.515444	4.33549	76.3315	17.6801	-14.931	86.1692	48.7381	-3.44416	72.49	4.91556	17.303	67.3106	21.8786	-3.3212	78.3348	44.6487	3.1881	56.3229	9.33343	40.6087	44.9603	12.3642	19.0287	49.0147	33.1486	2.76035	85.7956	-0.318713	63.2564	90.2387	-0.314398	83.384	113.304	-2.54929	61.4437	
43	0.358333	139.802	36.7668	59.2228	135.199	55.9692	38.9298	133.085	66.9567	18.4241	125.442	76.6404	0.827366	116.732	12.4844	2.94186	109.825	32.2818	-22.0511	106.664	56.5544	-12.6613	96.1908	7.8387	3.03552	88.321	27.5831	-19.3697	92.0508	53.2164	-1.8515	81.2515	5.6255	13.9365	75.1956	25.9577	-7.19218	78.0029	48.2165	5.27276	64.8998	5.10085	34.0141	57.2319	8.78543	11.4925	56.269	29.8565	-0.903224	96.4392	3.54242	58.8491	101.283	3.09469	79.3362	120.672	6.45723	62.0264	
44	0.366667	133.922	58.8604	54.6542	126.025	77.3715	36.8782	118.957	86.5754	16.2971	109.026	93.753	-2.77406	127.464	34.2182	-7.0074	112.91	49.2903	-23.1892	97.4019	69.2324	-5.06893	111.918	21.6196	-6.06796	92.8864	37.3209	-21.4645	89.6112	60.3594	0.592949	97.8835	10.9688	3.77048	85.7167	28.7589	-13.2944	79.154	48.8543	1.50415	88.0023	6.31517	25.0838	76.2808	4.48641	3.15614	72.0815	23.1365	-9.10999	112.615	10.6553	49.5097	115.903	16.0215	77.4071	135.675	27.7382	57.3865	
45	0.375	122.733	81.6169	55.09	106.86	95.1787	33.7072	98.1682	102.869	13.6108	86.8231	106.1	-5.7247	130.681	61.6376	-4.87606	108.119	71.105	-22.1493	88.4186	78.3403	1.52732	128.19	44.2776	-9.39866	107.223	48.9053	-28.6856	84.3721	60.8175	-5.86867	122.628	28.0151	3.0058	104.67	32.7713	-20.1015	84.2034	46.8218	-10.4969	115.238	10.2703	18.5932	111.537	8.5127	-1.38469	92.4283	13.8397	-18.9444	130.856	33.2157	46.7767	131.986	30.9266	73.979	142.655	58.0708	51.8798	
